<svg width="1440" height="892" viewBox="0 0 1440 892" fill="none" xmlns="http://www.w3.org/2000/svg">
<ellipse cy="355.5" rx="355" ry="355.5" fill="#F59E0B"/>
<ellipse cx="1343" cy="508.5" rx="298" ry="298.5" fill="#7E22CE"/>
<circle cx="1307" cy="363" r="77" fill="#A855F7"/>
<circle cx="169.5" cy="197.5" r="65.5" fill="#FBBF24"/>
<g filter="url(#filter0_dd_2003_3685)">
<g clip-path="url(#clip0_2003_3685)">
<rect x="170" y="158" width="1100" height="694" rx="20" fill="white"/>
<path d="M191 182.694C188.699 182.694 186.833 180.828 186.833 178.527C186.833 176.226 188.699 174.36 191 174.36C193.301 174.36 195.167 176.226 195.167 178.527C195.167 180.828 193.301 182.694 191 182.694Z" fill="#E11D48"/>
<path d="M206 182.694C203.699 182.694 201.833 180.828 201.833 178.527C201.833 176.226 203.699 174.36 206 174.36C208.301 174.36 210.167 176.226 210.167 178.527C210.167 180.828 208.301 182.694 206 182.694Z" fill="#FBBF24"/>
<path d="M221 182.694C218.699 182.694 216.833 180.828 216.833 178.527C216.833 176.226 218.699 174.36 221 174.36C223.301 174.36 225.167 176.226 225.167 178.527C225.167 180.828 223.301 182.694 221 182.694Z" fill="#22C55E"/>
<path d="M1211.76 178.5L1216.71 183.45C1216.8 183.542 1216.88 183.653 1216.93 183.775C1216.98 183.897 1217.01 184.028 1217.01 184.161C1217.01 184.293 1216.99 184.425 1216.94 184.548C1216.89 184.671 1216.81 184.782 1216.72 184.876C1216.63 184.97 1216.51 185.044 1216.39 185.095C1216.27 185.145 1216.14 185.17 1216 185.169C1215.87 185.168 1215.74 185.14 1215.62 185.088C1215.5 185.036 1215.39 184.959 1215.29 184.864L1209.64 179.207C1209.45 179.019 1209.34 178.765 1209.34 178.5C1209.34 178.235 1209.45 177.98 1209.64 177.793L1215.29 172.136C1215.48 171.954 1215.73 171.853 1216 171.855C1216.26 171.858 1216.51 171.963 1216.69 172.148C1216.88 172.334 1216.99 172.584 1216.99 172.847C1216.99 173.109 1216.89 173.361 1216.71 173.55L1211.76 178.5Z" fill="#94A3B8"/>
<path d="M1243.31 178.571L1238.36 173.621C1238.18 173.432 1238.08 173.18 1238.08 172.918C1238.09 172.655 1238.19 172.405 1238.38 172.219C1238.56 172.034 1238.81 171.929 1239.07 171.926C1239.34 171.924 1239.59 172.025 1239.78 172.207L1245.43 177.864C1245.62 178.052 1245.73 178.306 1245.73 178.571C1245.73 178.836 1245.62 179.09 1245.43 179.278L1239.78 184.935C1239.59 185.117 1239.34 185.218 1239.07 185.216C1238.81 185.213 1238.56 185.108 1238.38 184.923C1238.19 184.737 1238.09 184.487 1238.08 184.224C1238.08 183.962 1238.18 183.71 1238.36 183.521L1243.31 178.571V178.571Z" fill="#475569"/>
<rect x="473.515" y="166" width="494.903" height="25" rx="5" fill="#F1F5F9"/>
<path d="M680.898 181.875L682.527 176.66H683.242L683.101 177.697L681.443 183H680.746L680.898 181.875ZM679.803 176.66L681.191 181.934L681.291 183H680.558L678.719 176.66H679.803ZM684.801 181.893L686.125 176.66H687.203L685.363 183H684.637L684.801 181.893ZM683.4 176.66L684.994 181.787L685.176 183H684.484L682.779 177.686L682.638 176.66H683.4ZM689.922 181.875L691.551 176.66H692.265L692.125 177.697L690.467 183H689.769L689.922 181.875ZM688.826 176.66L690.215 181.934L690.314 183H689.582L687.742 176.66H688.826ZM693.824 181.893L695.148 176.66H696.226L694.387 183H693.66L693.824 181.893ZM692.424 176.66L694.017 181.787L694.199 183H693.508L691.803 177.686L691.662 176.66H692.424ZM698.945 181.875L700.574 176.66H701.289L701.148 177.697L699.49 183H698.793L698.945 181.875ZM697.849 176.66L699.238 181.934L699.338 183H698.605L696.765 176.66H697.849ZM702.847 181.893L704.172 176.66H705.25L703.41 183H702.683L702.847 181.893ZM701.447 176.66L703.041 181.787L703.222 183H702.531L700.826 177.686L700.685 176.66H701.447ZM705.654 182.426C705.654 182.242 705.711 182.088 705.824 181.963C705.941 181.834 706.109 181.77 706.328 181.77C706.547 181.77 706.713 181.834 706.826 181.963C706.943 182.088 707.002 182.242 707.002 182.426C707.002 182.605 706.943 182.758 706.826 182.883C706.713 183.008 706.547 183.07 706.328 183.07C706.109 183.07 705.941 183.008 705.824 182.883C705.711 182.758 705.654 182.605 705.654 182.426ZM712.492 181.318C712.492 181.162 712.457 181.018 712.387 180.885C712.32 180.748 712.181 180.625 711.97 180.516C711.763 180.402 711.451 180.305 711.033 180.223C710.681 180.148 710.363 180.061 710.078 179.959C709.797 179.857 709.556 179.734 709.357 179.59C709.162 179.445 709.012 179.275 708.906 179.08C708.801 178.885 708.748 178.656 708.748 178.395C708.748 178.145 708.803 177.908 708.912 177.686C709.025 177.463 709.183 177.266 709.387 177.094C709.594 176.922 709.842 176.787 710.131 176.689C710.42 176.592 710.742 176.543 711.097 176.543C711.605 176.543 712.039 176.633 712.398 176.812C712.758 176.992 713.033 177.232 713.224 177.533C713.416 177.83 713.512 178.16 713.512 178.523H712.428C712.428 178.348 712.375 178.178 712.269 178.014C712.168 177.846 712.017 177.707 711.818 177.598C711.623 177.488 711.383 177.434 711.097 177.434C710.797 177.434 710.553 177.48 710.365 177.574C710.181 177.664 710.047 177.779 709.961 177.92C709.879 178.061 709.838 178.209 709.838 178.365C709.838 178.482 709.857 178.588 709.896 178.682C709.939 178.771 710.013 178.855 710.119 178.934C710.224 179.008 710.373 179.078 710.564 179.145C710.756 179.211 711 179.277 711.297 179.344C711.816 179.461 712.244 179.602 712.58 179.766C712.916 179.93 713.166 180.131 713.33 180.369C713.494 180.607 713.576 180.896 713.576 181.236C713.576 181.514 713.517 181.768 713.4 181.998C713.287 182.229 713.121 182.428 712.902 182.596C712.687 182.76 712.429 182.889 712.129 182.982C711.832 183.072 711.498 183.117 711.127 183.117C710.568 183.117 710.095 183.018 709.709 182.818C709.322 182.619 709.029 182.361 708.83 182.045C708.631 181.729 708.531 181.395 708.531 181.043H709.621C709.637 181.34 709.722 181.576 709.879 181.752C710.035 181.924 710.226 182.047 710.453 182.121C710.679 182.191 710.904 182.227 711.127 182.227C711.424 182.227 711.672 182.188 711.871 182.109C712.074 182.031 712.228 181.924 712.334 181.787C712.439 181.65 712.492 181.494 712.492 181.318ZM714.713 179.9V179.766C714.713 179.309 714.779 178.885 714.912 178.494C715.045 178.1 715.236 177.758 715.486 177.469C715.736 177.176 716.039 176.949 716.394 176.789C716.75 176.625 717.148 176.543 717.59 176.543C718.035 176.543 718.435 176.625 718.791 176.789C719.15 176.949 719.455 177.176 719.705 177.469C719.959 177.758 720.152 178.1 720.285 178.494C720.418 178.885 720.484 179.309 720.484 179.766V179.9C720.484 180.357 720.418 180.781 720.285 181.172C720.152 181.562 719.959 181.904 719.705 182.197C719.455 182.486 719.152 182.713 718.797 182.877C718.445 183.037 718.047 183.117 717.601 183.117C717.156 183.117 716.756 183.037 716.4 182.877C716.045 182.713 715.74 182.486 715.486 182.197C715.236 181.904 715.045 181.562 714.912 181.172C714.779 180.781 714.713 180.357 714.713 179.9ZM715.797 179.766V179.9C715.797 180.217 715.834 180.516 715.908 180.797C715.982 181.074 716.094 181.32 716.242 181.535C716.394 181.75 716.584 181.92 716.81 182.045C717.037 182.166 717.301 182.227 717.601 182.227C717.898 182.227 718.158 182.166 718.381 182.045C718.607 181.92 718.795 181.75 718.943 181.535C719.092 181.32 719.203 181.074 719.277 180.797C719.355 180.516 719.394 180.217 719.394 179.9V179.766C719.394 179.453 719.355 179.158 719.277 178.881C719.203 178.6 719.09 178.352 718.937 178.137C718.789 177.918 718.601 177.746 718.375 177.621C718.152 177.496 717.89 177.434 717.59 177.434C717.293 177.434 717.031 177.496 716.804 177.621C716.582 177.746 716.394 177.918 716.242 178.137C716.094 178.352 715.982 178.6 715.908 178.881C715.834 179.158 715.797 179.453 715.797 179.766ZM723.021 174V183H721.931V174H723.021ZM725.939 174V183H724.849V174H725.939ZM730.31 183.117C729.869 183.117 729.469 183.043 729.109 182.895C728.754 182.742 728.447 182.529 728.189 182.256C727.935 181.982 727.74 181.658 727.603 181.283C727.467 180.908 727.398 180.498 727.398 180.053V179.807C727.398 179.291 727.474 178.832 727.627 178.43C727.779 178.023 727.986 177.68 728.248 177.398C728.51 177.117 728.806 176.904 729.138 176.76C729.47 176.615 729.814 176.543 730.17 176.543C730.623 176.543 731.013 176.621 731.342 176.777C731.674 176.934 731.945 177.152 732.156 177.434C732.367 177.711 732.523 178.039 732.625 178.418C732.726 178.793 732.777 179.203 732.777 179.648V180.135H728.043V179.25H731.693V179.168C731.678 178.887 731.619 178.613 731.517 178.348C731.42 178.082 731.263 177.863 731.049 177.691C730.834 177.52 730.541 177.434 730.17 177.434C729.924 177.434 729.697 177.486 729.49 177.592C729.283 177.693 729.105 177.846 728.957 178.049C728.808 178.252 728.693 178.5 728.611 178.793C728.529 179.086 728.488 179.424 728.488 179.807V180.053C728.488 180.354 728.529 180.637 728.611 180.902C728.697 181.164 728.82 181.395 728.98 181.594C729.144 181.793 729.342 181.949 729.572 182.062C729.806 182.176 730.072 182.232 730.369 182.232C730.752 182.232 731.076 182.154 731.342 181.998C731.607 181.842 731.84 181.633 732.039 181.371L732.695 181.893C732.558 182.1 732.385 182.297 732.174 182.484C731.963 182.672 731.703 182.824 731.394 182.941C731.09 183.059 730.728 183.117 730.31 183.117ZM735.127 177.656V183H734.043V176.66H735.097L735.127 177.656ZM737.107 176.625L737.101 177.633C737.012 177.613 736.926 177.602 736.844 177.598C736.765 177.59 736.676 177.586 736.574 177.586C736.324 177.586 736.103 177.625 735.912 177.703C735.72 177.781 735.558 177.891 735.426 178.031C735.293 178.172 735.187 178.34 735.109 178.535C735.035 178.727 734.986 178.938 734.963 179.168L734.658 179.344C734.658 178.961 734.695 178.602 734.769 178.266C734.847 177.93 734.967 177.633 735.127 177.375C735.287 177.113 735.49 176.91 735.736 176.766C735.986 176.617 736.283 176.543 736.627 176.543C736.705 176.543 736.795 176.553 736.896 176.572C736.998 176.588 737.068 176.605 737.107 176.625ZM737.4 182.426C737.4 182.242 737.457 182.088 737.57 181.963C737.687 181.834 737.855 181.77 738.074 181.77C738.293 181.77 738.459 181.834 738.572 181.963C738.689 182.088 738.748 182.242 738.748 182.426C738.748 182.605 738.689 182.758 738.572 182.883C738.459 183.008 738.293 183.07 738.074 183.07C737.855 183.07 737.687 183.008 737.57 182.883C737.457 182.758 737.4 182.605 737.4 182.426ZM743.084 182.227C743.342 182.227 743.58 182.174 743.799 182.068C744.017 181.963 744.197 181.818 744.338 181.635C744.478 181.447 744.558 181.234 744.578 180.996H745.609C745.59 181.371 745.463 181.721 745.228 182.045C744.998 182.365 744.695 182.625 744.32 182.824C743.945 183.02 743.533 183.117 743.084 183.117C742.607 183.117 742.191 183.033 741.836 182.865C741.484 182.697 741.191 182.467 740.957 182.174C740.726 181.881 740.553 181.545 740.435 181.166C740.322 180.783 740.265 180.379 740.265 179.953V179.707C740.265 179.281 740.322 178.879 740.435 178.5C740.553 178.117 740.726 177.779 740.957 177.486C741.191 177.193 741.484 176.963 741.836 176.795C742.191 176.627 742.607 176.543 743.084 176.543C743.58 176.543 744.013 176.645 744.385 176.848C744.756 177.047 745.047 177.32 745.258 177.668C745.472 178.012 745.59 178.402 745.609 178.84H744.578C744.558 178.578 744.484 178.342 744.355 178.131C744.23 177.92 744.058 177.752 743.84 177.627C743.625 177.498 743.373 177.434 743.084 177.434C742.752 177.434 742.472 177.5 742.246 177.633C742.023 177.762 741.845 177.938 741.713 178.16C741.584 178.379 741.49 178.623 741.431 178.893C741.377 179.158 741.349 179.43 741.349 179.707V179.953C741.349 180.23 741.377 180.504 741.431 180.773C741.486 181.043 741.578 181.287 741.707 181.506C741.84 181.725 742.017 181.9 742.24 182.033C742.467 182.162 742.748 182.227 743.084 182.227ZM746.541 179.9V179.766C746.541 179.309 746.607 178.885 746.74 178.494C746.873 178.1 747.064 177.758 747.314 177.469C747.564 177.176 747.867 176.949 748.222 176.789C748.578 176.625 748.976 176.543 749.418 176.543C749.863 176.543 750.263 176.625 750.619 176.789C750.978 176.949 751.283 177.176 751.533 177.469C751.787 177.758 751.98 178.1 752.113 178.494C752.246 178.885 752.312 179.309 752.312 179.766V179.9C752.312 180.357 752.246 180.781 752.113 181.172C751.98 181.562 751.787 181.904 751.533 182.197C751.283 182.486 750.98 182.713 750.625 182.877C750.273 183.037 749.875 183.117 749.429 183.117C748.984 183.117 748.584 183.037 748.228 182.877C747.873 182.713 747.568 182.486 747.314 182.197C747.064 181.904 746.873 181.562 746.74 181.172C746.607 180.781 746.541 180.357 746.541 179.9ZM747.625 179.766V179.9C747.625 180.217 747.662 180.516 747.736 180.797C747.81 181.074 747.922 181.32 748.07 181.535C748.222 181.75 748.412 181.92 748.638 182.045C748.865 182.166 749.129 182.227 749.429 182.227C749.726 182.227 749.986 182.166 750.209 182.045C750.435 181.92 750.623 181.75 750.771 181.535C750.92 181.32 751.031 181.074 751.105 180.797C751.183 180.516 751.222 180.217 751.222 179.9V179.766C751.222 179.453 751.183 179.158 751.105 178.881C751.031 178.6 750.918 178.352 750.765 178.137C750.617 177.918 750.429 177.746 750.203 177.621C749.98 177.496 749.719 177.434 749.418 177.434C749.121 177.434 748.859 177.496 748.633 177.621C748.41 177.746 748.222 177.918 748.07 178.137C747.922 178.352 747.81 178.6 747.736 178.881C747.662 179.158 747.625 179.453 747.625 179.766ZM754.75 177.92V183H753.66V176.66H754.691L754.75 177.92ZM754.527 179.59L754.023 179.572C754.027 179.139 754.084 178.738 754.193 178.371C754.303 178 754.465 177.678 754.679 177.404C754.894 177.131 755.162 176.92 755.482 176.771C755.803 176.619 756.174 176.543 756.595 176.543C756.892 176.543 757.166 176.586 757.416 176.672C757.666 176.754 757.883 176.885 758.066 177.064C758.25 177.244 758.392 177.475 758.494 177.756C758.595 178.037 758.646 178.377 758.646 178.775V183H757.562V178.828C757.562 178.496 757.506 178.23 757.392 178.031C757.283 177.832 757.127 177.688 756.924 177.598C756.72 177.504 756.482 177.457 756.209 177.457C755.888 177.457 755.621 177.514 755.406 177.627C755.191 177.74 755.019 177.896 754.89 178.096C754.762 178.295 754.668 178.523 754.609 178.781C754.554 179.035 754.527 179.305 754.527 179.59ZM758.635 178.992L757.908 179.215C757.912 178.867 757.969 178.533 758.078 178.213C758.191 177.893 758.353 177.607 758.564 177.357C758.779 177.107 759.043 176.91 759.355 176.766C759.668 176.617 760.025 176.543 760.428 176.543C760.767 176.543 761.068 176.588 761.33 176.678C761.595 176.768 761.818 176.906 761.998 177.094C762.181 177.277 762.32 177.514 762.414 177.803C762.508 178.092 762.554 178.436 762.554 178.834V183H761.465V178.822C761.465 178.467 761.408 178.191 761.295 177.996C761.185 177.797 761.029 177.658 760.826 177.58C760.627 177.498 760.388 177.457 760.111 177.457C759.873 177.457 759.662 177.498 759.478 177.58C759.295 177.662 759.14 177.775 759.015 177.92C758.89 178.061 758.795 178.223 758.728 178.406C758.666 178.59 758.635 178.785 758.635 178.992Z" fill="#94A3B8"/>
<rect x="170" y="199" width="1100" height="653" fill="#E0F2FE"/>
<path d="M170 199.871H354.255V852H170V199.871Z" fill="#BFDBFE"/>
<path d="M192.111 261.688C192.111 255.918 197.06 251.24 203.166 251.24H321.089C327.194 251.24 332.144 255.918 332.144 261.688V261.688C332.144 267.458 327.194 272.136 321.089 272.136H203.166C197.06 272.136 192.111 267.458 192.111 261.688V261.688Z" fill="#93C5FD"/>
<path d="M236.332 334.824C236.332 331.939 238.806 329.6 241.859 329.6H333.987C337.039 329.6 339.514 331.939 339.514 334.824V334.824C339.514 337.709 337.039 340.048 333.987 340.048H241.859C238.806 340.048 236.332 337.709 236.332 334.824V334.824Z" fill="white"/>
<path d="M236.332 390.547C236.332 387.662 238.806 385.323 241.859 385.323H305.427C308.48 385.323 310.955 387.662 310.955 390.547V390.547C310.955 393.432 308.48 395.771 305.427 395.771H241.859C238.806 395.771 236.332 393.432 236.332 390.547V390.547Z" fill="white"/>
<path d="M236.332 446.269C236.332 443.384 238.806 441.045 241.859 441.045H321.089C324.142 441.045 326.616 443.384 326.616 446.269V446.269C326.616 449.155 324.142 451.493 321.089 451.493H241.859C238.806 451.493 236.332 449.155 236.332 446.269V446.269Z" fill="white"/>
<path fill-rule="evenodd" clip-rule="evenodd" d="M206.851 346.143C213.465 346.143 218.827 341.075 218.827 334.824C218.827 328.573 213.465 323.505 206.851 323.505C200.236 323.505 194.874 328.573 194.874 334.824C194.874 341.075 200.236 346.143 206.851 346.143ZM206.851 348.755C214.992 348.755 221.591 342.518 221.591 334.824C221.591 327.13 214.992 320.893 206.851 320.893C198.71 320.893 192.111 327.13 192.111 334.824C192.111 342.518 198.71 348.755 206.851 348.755Z" fill="#93C5FD"/>
<path d="M413.216 261.688C413.216 257.841 416.516 254.723 420.586 254.723H527.454C531.524 254.723 534.824 257.841 534.824 261.688V261.688C534.824 265.535 531.524 268.653 527.454 268.653H420.586C416.516 268.653 413.216 265.535 413.216 261.688V261.688Z" fill="#BFDBFE"/>
<path fill-rule="evenodd" clip-rule="evenodd" d="M608.987 542.531C609.041 537.565 613.215 533.336 618.58 533.336C621.874 533.336 624.296 534.877 625.842 536.327C626.273 536.731 626.642 537.134 626.951 537.506C627.261 537.134 627.63 536.731 628.061 536.327C629.606 534.877 632.029 533.336 635.322 533.336C640.688 533.336 644.862 537.565 644.916 542.531L644.916 542.531C645.018 552.217 636.783 558.918 628.506 564.228C628.048 564.523 627.506 564.68 626.951 564.68C626.397 564.68 625.855 564.523 625.397 564.228C617.119 558.918 608.884 552.217 608.987 542.531L608.987 542.531ZM628.186 540.453C627.951 540.894 627.474 541.172 626.951 541.172C626.429 541.172 625.952 540.894 625.717 540.453C625.717 540.453 625.716 540.452 625.715 540.45C625.714 540.447 625.711 540.442 625.707 540.435C625.705 540.431 625.703 540.427 625.7 540.422C625.684 540.395 625.659 540.35 625.622 540.29C625.55 540.171 625.437 539.993 625.283 539.776C624.975 539.34 624.511 538.759 623.895 538.181C622.657 537.019 620.894 535.948 618.58 535.948C614.832 535.948 611.79 538.925 611.75 542.557M628.186 540.453C628.186 540.453 628.187 540.452 628.187 540.45C628.19 540.446 628.195 540.436 628.203 540.422C628.218 540.395 628.244 540.35 628.28 540.29C628.353 540.171 628.466 539.993 628.619 539.776C628.928 539.34 629.392 538.759 630.008 538.181C631.246 537.019 633.009 535.948 635.322 535.948C639.07 535.948 642.113 538.925 642.152 542.557C642.239 550.719 635.303 556.711 626.953 562.067L626.951 562.068L626.95 562.067C618.599 556.711 611.664 550.719 611.75 542.558" fill="white"/>
<path d="M413.216 549.008C413.216 545.161 416.516 542.043 420.586 542.043H470.335C474.405 542.043 477.705 545.161 477.705 549.008V549.008C477.705 552.855 474.405 555.973 470.335 555.973H420.586C416.516 555.973 413.216 552.855 413.216 549.008V549.008Z" fill="#BFDBFE"/>
<path d="M492.446 549.008C492.446 545.161 495.745 542.043 499.816 542.043H582.73C586.801 542.043 590.101 545.161 590.101 549.008V549.008C590.101 552.855 586.801 555.973 582.73 555.973H499.816C495.745 555.973 492.446 552.855 492.446 549.008V549.008Z" fill="#BFDBFE"/>
<path d="M413.216 616.92C413.216 614.035 415.691 611.696 418.744 611.696H496.131C499.183 611.696 501.658 614.035 501.658 616.92V616.92C501.658 619.805 499.183 622.144 496.131 622.144H418.744C415.691 622.144 413.216 619.805 413.216 616.92V616.92Z" fill="white"/>
<path d="M413.216 641.299C413.216 638.414 415.691 636.075 418.744 636.075H537.588C540.641 636.075 543.116 638.414 543.116 641.299V641.299C543.116 644.184 540.641 646.523 537.588 646.523H418.744C415.691 646.523 413.216 644.184 413.216 641.299V641.299Z" fill="white"/>
<path d="M516.399 616.92C516.399 614.035 518.873 611.696 521.926 611.696H614.054C617.106 611.696 619.581 614.035 619.581 616.92V616.92C619.581 619.805 617.106 622.144 614.054 622.144H521.926C518.873 622.144 516.399 619.805 516.399 616.92V616.92Z" fill="white"/>
<path d="M413.216 329.6C413.216 326.715 415.691 324.376 418.744 324.376H496.131C499.183 324.376 501.658 326.715 501.658 329.6V329.6C501.658 332.485 499.183 334.824 496.131 334.824H418.744C415.691 334.824 413.216 332.485 413.216 329.6V329.6Z" fill="white"/>
<path d="M413.216 353.979C413.216 351.094 415.691 348.755 418.744 348.755H609.447C612.5 348.755 614.975 351.094 614.975 353.979V353.979C614.975 356.864 612.5 359.203 609.447 359.203H418.744C415.691 359.203 413.216 356.864 413.216 353.979V353.979Z" fill="white"/>
<path d="M516.399 329.6C516.399 326.715 518.873 324.376 521.926 324.376H731.977C735.029 324.376 737.504 326.715 737.504 329.6V329.6C737.504 332.485 735.029 334.824 731.977 334.824H521.926C518.873 334.824 516.399 332.485 516.399 329.6V329.6Z" fill="white"/>
<path fill-rule="evenodd" clip-rule="evenodd" d="M219.749 379.228H195.796V401.865H219.749V379.228ZM193.032 376.616V404.477H222.513V376.616H193.032Z" fill="#60A5FA"/>
<g clip-path="url(#clip1_2003_3685)">
<rect x="808.442" y="261.688" width="184.255" height="238.563" rx="20" fill="white"/>
<path d="M931.179 500.457C931.179 560.824 879.826 609.762 816.479 609.762C753.131 609.762 701.778 560.824 701.778 500.457C701.778 440.089 753.131 391.152 816.479 391.152C879.826 391.152 931.179 440.089 931.179 500.457Z" fill="#FBBF24"/>
<path fill-rule="evenodd" clip-rule="evenodd" d="M1018.28 354.597L958.343 297.957L898.411 354.597L958.343 411.238L1018.28 354.597ZM958.343 293.032L893.199 354.597L958.343 416.163L1023.49 354.597L958.343 293.032Z" fill="#BFDBFE"/>
</g>
<path d="M207.772 434.08L222.513 458.209H193.032L207.772 434.08Z" fill="#93C5FD"/>
<rect x="1022.18" y="261.688" width="184.255" height="175.875" rx="20" fill="white"/>
<path fill-rule="evenodd" clip-rule="evenodd" d="M1105.06 392.825C1123.43 392.825 1138.2 378.881 1138.2 361.826C1138.2 344.772 1123.43 330.828 1105.06 330.828C1086.69 330.828 1071.93 344.772 1071.93 361.826C1071.93 378.881 1086.69 392.825 1105.06 392.825ZM1105.06 401.532C1128.45 401.532 1147.41 383.755 1147.41 361.826C1147.41 339.898 1128.45 322.121 1105.06 322.121C1081.67 322.121 1062.71 339.898 1062.71 361.826C1062.71 383.755 1081.67 401.532 1105.06 401.532Z" fill="#BFDBFE"/>
<path d="M1124.31 349.259L1136.49 306.287L1169.78 337.745L1124.31 349.259Z" fill="#FBBF24"/>
<g clip-path="url(#clip2_2003_3685)">
<rect x="808.442" y="528.112" width="184.255" height="266.424" rx="20" fill="white"/>
<path fill-rule="evenodd" clip-rule="evenodd" d="M981.181 828.492C1032.82 828.492 1074.69 788.926 1074.69 740.119C1074.69 691.312 1032.82 651.747 981.181 651.747C929.537 651.747 887.672 691.312 887.672 740.119C887.672 788.926 929.537 828.492 981.181 828.492ZM981.181 837.199C1037.91 837.199 1083.9 793.735 1083.9 740.119C1083.9 686.504 1037.91 643.04 981.181 643.04C924.449 643.04 878.459 686.504 878.459 740.119C878.459 793.735 924.449 837.199 981.181 837.199Z" fill="#FBBF24"/>
<path d="M905.176 607.54C905.176 623.998 890.946 637.34 873.392 637.34C855.838 637.34 841.608 623.998 841.608 607.54C841.608 591.082 855.838 577.74 873.392 577.74C890.946 577.74 905.176 591.082 905.176 607.54Z" fill="#BFDBFE"/>
<path fill-rule="evenodd" clip-rule="evenodd" d="M873.392 634.728C889.44 634.728 902.412 622.536 902.412 607.54C902.412 592.544 889.44 580.352 873.392 580.352C857.344 580.352 844.372 592.544 844.372 607.54C844.372 622.536 857.344 634.728 873.392 634.728ZM873.392 637.34C890.946 637.34 905.176 623.998 905.176 607.54C905.176 591.082 890.946 577.74 873.392 577.74C855.838 577.74 841.608 591.082 841.608 607.54C841.608 623.998 855.838 637.34 873.392 637.34Z" fill="#BFDBFE"/>
</g>
<g clip-path="url(#clip3_2003_3685)">
<rect x="1022.18" y="465.424" width="184.255" height="297.768" rx="20" fill="white"/>
<path d="M1248.81 680.043C1248.81 701.441 1230.66 718.788 1208.27 718.788C1185.89 718.788 1167.74 701.441 1167.74 680.043C1167.74 658.645 1185.89 641.299 1208.27 641.299C1230.66 641.299 1248.81 658.645 1248.81 680.043Z" fill="white"/>
<path fill-rule="evenodd" clip-rule="evenodd" d="M1208.27 716.176C1229.11 716.176 1246.05 700.027 1246.05 680.043C1246.05 660.06 1229.11 643.911 1208.27 643.911C1187.44 643.911 1170.5 660.06 1170.5 680.043C1170.5 700.027 1187.44 716.176 1208.27 716.176ZM1208.27 718.788C1230.66 718.788 1248.81 701.441 1248.81 680.043C1248.81 658.645 1230.66 641.299 1208.27 641.299C1185.89 641.299 1167.74 658.645 1167.74 680.043C1167.74 701.441 1185.89 718.788 1208.27 718.788Z" fill="#BFDBFE"/>
<path d="M1175.11 570.339C1175.11 598.95 1150.77 622.144 1120.75 622.144C1090.73 622.144 1066.4 598.95 1066.4 570.339C1066.4 541.729 1090.73 518.535 1120.75 518.535C1150.77 518.535 1175.11 541.729 1175.11 570.339Z" fill="#BFDBFE"/>
<path d="M1056.26 670.031L1058.86 677.098L1066.78 677.25L1060.47 681.77L1062.76 688.931L1056.26 684.658L1049.77 688.931L1052.06 681.77L1045.75 677.25L1053.67 677.098L1056.26 670.031Z" fill="#FBBF24"/>
<path d="M1094.04 670.031L1096.64 677.098L1104.55 677.25L1098.24 681.77L1100.54 688.931L1094.04 684.658L1087.54 688.931L1089.83 681.77L1083.52 677.25L1091.44 677.098L1094.04 670.031Z" fill="#FBBF24"/>
<path d="M1131.81 670.031L1134.41 677.098L1142.32 677.25L1136.01 681.77L1138.31 688.931L1131.81 684.658L1125.31 688.931L1127.6 681.77L1121.29 677.25L1129.21 677.098L1131.81 670.031Z" fill="#FBBF24"/>
<path d="M1169.58 670.031L1172.18 677.098L1180.1 677.25L1173.79 681.77L1176.08 688.931L1169.58 684.658L1163.08 688.931L1165.38 681.77L1159.07 677.25L1166.98 677.098L1169.58 670.031Z" fill="#FBBF24"/>
<path d="M1207.35 670.031L1209.95 677.098L1217.87 677.25L1211.56 681.77L1213.85 688.931L1207.35 684.658L1200.86 688.931L1203.15 681.77L1196.84 677.25L1204.75 677.098L1207.35 670.031Z" fill="#FBBF24"/>
</g>
</g>
<rect x="172.5" y="160.5" width="1095" height="689" rx="17.5" stroke="white" stroke-width="5"/>
</g>
<circle cx="1244" cy="680" r="74" fill="#FBBF24"/>
<path d="M214 583.5C214 589.344 212.849 595.13 210.613 600.529C208.376 605.928 205.098 610.834 200.966 614.966C196.834 619.098 191.928 622.376 186.529 624.613C181.13 626.849 175.344 628 169.5 628C163.656 628 157.87 626.849 152.471 624.613C147.072 622.376 142.166 619.098 138.034 614.966C133.902 610.834 130.624 605.928 128.387 600.529C126.151 595.13 125 589.344 125 583.5L169.5 583.5H214Z" fill="#7E22CE"/>
<defs>
<filter id="filter0_dd_2003_3685" x="150" y="148" width="1140" height="744" filterUnits="userSpaceOnUse" color-interpolation-filters="sRGB">
<feFlood flood-opacity="0" result="BackgroundImageFix"/>
<feColorMatrix in="SourceAlpha" type="matrix" values="0 0 0 0 0 0 0 0 0 0 0 0 0 0 0 0 0 0 127 0" result="hardAlpha"/>
<feOffset/>
<feGaussianBlur stdDeviation="5"/>
<feColorMatrix type="matrix" values="0 0 0 0 0 0 0 0 0 0 0 0 0 0 0 0 0 0 0.07 0"/>
<feBlend mode="normal" in2="BackgroundImageFix" result="effect1_dropShadow_2003_3685"/>
<feColorMatrix in="SourceAlpha" type="matrix" values="0 0 0 0 0 0 0 0 0 0 0 0 0 0 0 0 0 0 127 0" result="hardAlpha"/>
<feMorphology radius="5" operator="erode" in="SourceAlpha" result="effect2_dropShadow_2003_3685"/>
<feOffset dy="20"/>
<feGaussianBlur stdDeviation="12.5"/>
<feColorMatrix type="matrix" values="0 0 0 0 0 0 0 0 0 0 0 0 0 0 0 0 0 0 0.1 0"/>
<feBlend mode="normal" in2="effect1_dropShadow_2003_3685" result="effect2_dropShadow_2003_3685"/>
<feBlend mode="normal" in="SourceGraphic" in2="effect2_dropShadow_2003_3685" result="shape"/>
</filter>
<clipPath id="clip0_2003_3685">
<rect x="170" y="158" width="1100" height="694" rx="20" fill="white"/>
</clipPath>
<clipPath id="clip1_2003_3685">
<rect x="808.442" y="261.688" width="184.255" height="238.563" rx="20" fill="white"/>
</clipPath>
<clipPath id="clip2_2003_3685">
<rect x="808.442" y="528.112" width="184.255" height="266.424" rx="20" fill="white"/>
</clipPath>
<clipPath id="clip3_2003_3685">
<rect x="1022.18" y="465.424" width="184.255" height="297.768" rx="20" fill="white"/>
</clipPath>
</defs>
</svg>
